<mxfile host="app.diagrams.net" modified="2023-03-05T16:59:53.975Z" agent="5.0 (Windows NT 10.0; Win64; x64) AppleWebKit/537.36 (KHTML, like Gecko) Chrome/109.0.0.0 Safari/537.36" etag="C0q3JMnAjkQT7dhru6zF" version="21.0.2" type="github">
  <diagram id="C5RBs43oDa-KdzZeNtuy" name="Page-1">
    <mxGraphModel dx="875" dy="458" grid="0" gridSize="10" guides="1" tooltips="1" connect="1" arrows="1" fold="1" page="1" pageScale="1" pageWidth="827" pageHeight="1169" math="0" shadow="0">
      <root>
        <mxCell id="WIyWlLk6GJQsqaUBKTNV-0" />
        <mxCell id="WIyWlLk6GJQsqaUBKTNV-1" parent="WIyWlLk6GJQsqaUBKTNV-0" />
        <mxCell id="jkEdQrT9NLN0tDl_DPWm-2" value="Model Class Definition" style="swimlane;fontStyle=0;childLayout=stackLayout;horizontal=1;startSize=30;horizontalStack=0;resizeParent=1;resizeParentMax=0;resizeLast=0;collapsible=1;marginBottom=0;whiteSpace=wrap;html=1;" vertex="1" parent="WIyWlLk6GJQsqaUBKTNV-1">
          <mxGeometry x="10" y="130" width="230" height="120" as="geometry">
            <mxRectangle x="140" y="170" width="60" height="30" as="alternateBounds" />
          </mxGeometry>
        </mxCell>
        <mxCell id="jkEdQrT9NLN0tDl_DPWm-3" value="GAN" style="text;strokeColor=none;fillColor=none;align=left;verticalAlign=middle;spacingLeft=4;spacingRight=4;overflow=hidden;points=[[0,0.5],[1,0.5]];portConstraint=eastwest;rotatable=0;whiteSpace=wrap;html=1;" vertex="1" parent="jkEdQrT9NLN0tDl_DPWm-2">
          <mxGeometry y="30" width="230" height="30" as="geometry" />
        </mxCell>
        <mxCell id="jkEdQrT9NLN0tDl_DPWm-4" value="VAE" style="text;strokeColor=none;fillColor=none;align=left;verticalAlign=middle;spacingLeft=4;spacingRight=4;overflow=hidden;points=[[0,0.5],[1,0.5]];portConstraint=eastwest;rotatable=0;whiteSpace=wrap;html=1;" vertex="1" parent="jkEdQrT9NLN0tDl_DPWm-2">
          <mxGeometry y="60" width="230" height="30" as="geometry" />
        </mxCell>
        <mxCell id="jkEdQrT9NLN0tDl_DPWm-5" value="Score-Based Models" style="text;strokeColor=none;fillColor=none;align=left;verticalAlign=middle;spacingLeft=4;spacingRight=4;overflow=hidden;points=[[0,0.5],[1,0.5]];portConstraint=eastwest;rotatable=0;whiteSpace=wrap;html=1;" vertex="1" parent="jkEdQrT9NLN0tDl_DPWm-2">
          <mxGeometry y="90" width="230" height="30" as="geometry" />
        </mxCell>
        <mxCell id="jkEdQrT9NLN0tDl_DPWm-8" value="Vanilla Architectures" style="swimlane;fontStyle=0;childLayout=stackLayout;horizontal=1;startSize=30;horizontalStack=0;resizeParent=1;resizeParentMax=0;resizeLast=0;collapsible=1;marginBottom=0;whiteSpace=wrap;html=1;" vertex="1" parent="WIyWlLk6GJQsqaUBKTNV-1">
          <mxGeometry x="304" y="130" width="220" height="120" as="geometry">
            <mxRectangle x="140" y="170" width="60" height="30" as="alternateBounds" />
          </mxGeometry>
        </mxCell>
        <mxCell id="jkEdQrT9NLN0tDl_DPWm-9" value="DCGAN" style="text;strokeColor=none;fillColor=none;align=left;verticalAlign=middle;spacingLeft=4;spacingRight=4;overflow=hidden;points=[[0,0.5],[1,0.5]];portConstraint=eastwest;rotatable=0;whiteSpace=wrap;html=1;" vertex="1" parent="jkEdQrT9NLN0tDl_DPWm-8">
          <mxGeometry y="30" width="220" height="30" as="geometry" />
        </mxCell>
        <mxCell id="jkEdQrT9NLN0tDl_DPWm-10" value="VAE" style="text;strokeColor=none;fillColor=none;align=left;verticalAlign=middle;spacingLeft=4;spacingRight=4;overflow=hidden;points=[[0,0.5],[1,0.5]];portConstraint=eastwest;rotatable=0;whiteSpace=wrap;html=1;" vertex="1" parent="jkEdQrT9NLN0tDl_DPWm-8">
          <mxGeometry y="60" width="220" height="30" as="geometry" />
        </mxCell>
        <mxCell id="jkEdQrT9NLN0tDl_DPWm-11" value="Denoising Diffusion" style="text;strokeColor=none;fillColor=none;align=left;verticalAlign=middle;spacingLeft=4;spacingRight=4;overflow=hidden;points=[[0,0.5],[1,0.5]];portConstraint=eastwest;rotatable=0;whiteSpace=wrap;html=1;" vertex="1" parent="jkEdQrT9NLN0tDl_DPWm-8">
          <mxGeometry y="90" width="220" height="30" as="geometry" />
        </mxCell>
        <mxCell id="jkEdQrT9NLN0tDl_DPWm-12" style="edgeStyle=orthogonalEdgeStyle;rounded=0;orthogonalLoop=1;jettySize=auto;html=1;exitX=1;exitY=0.5;exitDx=0;exitDy=0;entryX=0;entryY=0.5;entryDx=0;entryDy=0;" edge="1" parent="WIyWlLk6GJQsqaUBKTNV-1" source="jkEdQrT9NLN0tDl_DPWm-3" target="jkEdQrT9NLN0tDl_DPWm-9">
          <mxGeometry relative="1" as="geometry" />
        </mxCell>
        <mxCell id="jkEdQrT9NLN0tDl_DPWm-13" style="edgeStyle=orthogonalEdgeStyle;rounded=0;orthogonalLoop=1;jettySize=auto;html=1;exitX=1;exitY=0.5;exitDx=0;exitDy=0;entryX=0;entryY=0.5;entryDx=0;entryDy=0;" edge="1" parent="WIyWlLk6GJQsqaUBKTNV-1" source="jkEdQrT9NLN0tDl_DPWm-4" target="jkEdQrT9NLN0tDl_DPWm-10">
          <mxGeometry relative="1" as="geometry" />
        </mxCell>
        <mxCell id="jkEdQrT9NLN0tDl_DPWm-14" style="edgeStyle=orthogonalEdgeStyle;rounded=0;orthogonalLoop=1;jettySize=auto;html=1;exitX=1;exitY=0.5;exitDx=0;exitDy=0;entryX=0;entryY=0.5;entryDx=0;entryDy=0;" edge="1" parent="WIyWlLk6GJQsqaUBKTNV-1" source="jkEdQrT9NLN0tDl_DPWm-5" target="jkEdQrT9NLN0tDl_DPWm-11">
          <mxGeometry relative="1" as="geometry" />
        </mxCell>
        <mxCell id="jkEdQrT9NLN0tDl_DPWm-19" style="edgeStyle=orthogonalEdgeStyle;rounded=0;orthogonalLoop=1;jettySize=auto;html=1;exitX=0.1;exitY=0.5;exitDx=0;exitDy=0;exitPerimeter=0;entryX=0;entryY=0.5;entryDx=0;entryDy=0;" edge="1" parent="WIyWlLk6GJQsqaUBKTNV-1" source="jkEdQrT9NLN0tDl_DPWm-16" target="jkEdQrT9NLN0tDl_DPWm-18">
          <mxGeometry relative="1" as="geometry" />
        </mxCell>
        <mxCell id="jkEdQrT9NLN0tDl_DPWm-16" value="" style="shape=curlyBracket;whiteSpace=wrap;html=1;rounded=1;flipH=1;labelPosition=right;verticalLabelPosition=middle;align=left;verticalAlign=middle;" vertex="1" parent="WIyWlLk6GJQsqaUBKTNV-1">
          <mxGeometry x="530" y="130" width="20" height="120" as="geometry" />
        </mxCell>
        <mxCell id="jkEdQrT9NLN0tDl_DPWm-18" value="State-of-the-art Architecture" style="rounded=1;whiteSpace=wrap;html=1;" vertex="1" parent="WIyWlLk6GJQsqaUBKTNV-1">
          <mxGeometry x="640" y="170" width="130" height="40" as="geometry" />
        </mxCell>
        <mxCell id="jkEdQrT9NLN0tDl_DPWm-21" value="&lt;h1&gt;Criteria 1&lt;/h1&gt;&lt;p&gt;Top 3 popular implementation generative model class on papers with code website.&lt;/p&gt;" style="text;html=1;strokeColor=none;fillColor=none;spacing=5;spacingTop=-20;whiteSpace=wrap;overflow=hidden;rounded=0;" vertex="1" parent="WIyWlLk6GJQsqaUBKTNV-1">
          <mxGeometry x="10" y="10" width="230" height="120" as="geometry" />
        </mxCell>
        <mxCell id="jkEdQrT9NLN0tDl_DPWm-22" value="&lt;h1&gt;Criteria 2&lt;/h1&gt;&lt;p&gt;Be a &quot;vanilla&quot; architecture of the previous defined model class with good performance and wide application field.&lt;/p&gt;" style="text;html=1;strokeColor=none;fillColor=none;spacing=5;spacingTop=-20;whiteSpace=wrap;overflow=hidden;rounded=0;" vertex="1" parent="WIyWlLk6GJQsqaUBKTNV-1">
          <mxGeometry x="300" y="10" width="230" height="120" as="geometry" />
        </mxCell>
        <mxCell id="jkEdQrT9NLN0tDl_DPWm-24" value="&lt;h1&gt;Criteria 3&lt;/h1&gt;&lt;p&gt;Be a state-of-the-art architecture of the previous best performed model class with online application tutorial and feasible computational complexity.&lt;/p&gt;" style="text;html=1;strokeColor=none;fillColor=none;spacing=5;spacingTop=-20;whiteSpace=wrap;overflow=hidden;rounded=0;" vertex="1" parent="WIyWlLk6GJQsqaUBKTNV-1">
          <mxGeometry x="590" y="10" width="230" height="120" as="geometry" />
        </mxCell>
      </root>
    </mxGraphModel>
  </diagram>
</mxfile>
